<?xml version="1.0" encoding="UTF-8" standalone="no"?>
<!DOCTYPE svg PUBLIC "-//W3C//DTD SVG 1.1//EN" "http://www.w3.org/Graphics/SVG/1.1/DTD/svg11.dtd">
<!-- Created with Vectornator (http://vectornator.io/) -->
<svg height="100%" stroke-miterlimit="10" style="fill-rule:nonzero;clip-rule:evenodd;stroke-linecap:round;stroke-linejoin:round;" version="1.1" viewBox="0 0 1240 1240" width="100%" xml:space="preserve" xmlns="http://www.w3.org/2000/svg" xmlns:vectornator="http://vectornator.io" xmlns:xlink="http://www.w3.org/1999/xlink">
<defs/>
<g id="Layer-2" vectornator:layerName="Layer 2">
<path d="M282.258 8.02975L957.195 8.02975C1110.07 8.02975 1234 148.687 1234 322.196L1234 918.546C1234 1092.06 1110.07 1232.71 957.195 1232.71L282.258 1232.71C129.383 1232.71 5.45438 1092.06 5.45438 918.546L5.45438 322.196C5.45438 148.687 129.383 8.02975 282.258 8.02975Z" fill="#ffffff" fill-rule="nonzero" opacity="1" stroke="none"/>
</g>
<g id="Layer-1" vectornator:layerName="Layer 1">
<g opacity="1">
<path d="M508.29 1151.47C499.706 1142.88 481.805 1138.55 470.999 1133.15C442.578 1118.94 411.006 1097.07 387.258 1075.57C263.77 963.849 212.916 826.792 208 662.104C207.265 637.477 206.461 612.034 209.962 587.523C217.61 533.988 231.894 484.936 251.833 435.087C261.546 410.806 279.02 387.867 294.358 366.393C353.531 283.55 441.041 232.198 542.311 227.697C582.627 225.905 624.705 233.893 660.725 251.904C667.792 255.437 677.077 257.461 683.623 262.372C701.531 275.803 720.157 287.449 737.27 302.279C769.92 330.576 805.857 373.651 822.319 414.806C830.644 435.617 841.968 457.406 848.489 480.229C850.663 487.838 854.53 513.094 858.956 517.52C871.337 508.235 882.799 495.376 894.285 484.809C919.621 461.498 945.449 438.726 970.83 415.46C960.319 394.44 951.724 371.36 941.389 350.692C910.315 288.542 857.914 232.359 804.656 189.752C760.947 154.785 708.68 130.553 654.837 115.17C607.824 101.738 559.248 97.9311 510.253 101.431C466.203 104.577 422.831 114.549 382.025 130.871C121.825 234.951 25.2796 542.926 89.5845 800.146C125.309 943.045 233.332 1066.22 369.594 1120.72C403.561 1134.3 438.907 1142.96 474.924 1149.5C480.737 1150.56 505.338 1154.42 508.29 1151.47Z" fill="#4282c4" fill-rule="nonzero" opacity="1" stroke="none"/>
<path d="M1035.6 730.798C1034.61 731.453 1034.61 731.453 1033.63 732.106C1035.91 736.664 1030.98 747.959 1029.71 753.042C1025.05 771.679 1017.28 789.008 1012.05 807.343C1008.24 820.652 1000.96 832.781 995.036 844.634C958.481 917.743 888.517 985.819 807.927 1008.84C762.978 1021.69 718.511 1027.28 671.193 1023.89C644.292 1021.97 593.969 1010.62 572.404 994.452C565.778 989.481 556.639 986.955 549.507 982.676C538.707 976.196 528.363 968.414 518.103 961.086C494.292 944.077 473.244 920.046 455.298 896.972C441.119 878.742 433.487 857.35 421.932 838.091C399.99 801.521 390.908 753.266 385.295 711.171C373.357 621.634 391.357 538.108 430.437 459.948C463.859 393.105 522.111 350.651 586.143 318.635C603.204 310.104 626.389 306.006 645.024 302.279C651.231 301.037 665.847 301.738 669.885 297.7C667.148 294.963 662.73 294.951 659.416 292.466C643.403 280.455 619.349 275.202 599.882 270.877C505.606 249.926 411.029 291.289 347.35 360.505C333.163 375.926 313.428 396.899 305.48 416.769C300.797 428.476 290.319 438.814 287.162 451.443C284.067 463.82 276.9 476.116 272.114 488.079C265.32 505.065 260.835 524.038 256.413 541.727C245.053 587.164 245.291 637.041 245.291 683.04C245.291 805.613 301.577 938.211 387.912 1024.54C481.975 1118.61 619.588 1163.37 751.663 1150.15C782.286 1147.1 817.658 1142.08 846.526 1130.53C858.371 1125.8 870.662 1122.19 882.508 1117.45C888.667 1114.98 895.418 1110.45 901.481 1108.94C905.908 1107.84 909.744 1103.44 913.912 1102.4C929.887 1098.41 946.125 1085.29 959.708 1076.23C1026.47 1031.73 1071.74 977.394 1112.14 910.057C1123.23 891.585 1129.81 872.11 1139.62 852.484C1140.75 850.217 1148.25 832.459 1148.12 832.204C1146.37 828.708 1138.03 823.221 1135.7 821.082C1128.52 814.504 1121.38 807.921 1114.11 801.455C1087.81 778.08 1061.31 754.802 1035.6 730.798Z" fill="#4282c4" fill-rule="nonzero" opacity="1" stroke="none"/>
<path d="M885.78 720.985C875.158 722.756 870.828 720.552 856.34 721.639C854.043 721.811 850.57 737.252 849.797 739.958C844.604 758.133 834.539 774.177 827.553 791.642C812.671 828.845 776.882 863.486 747.738 888.467C715.198 916.359 676.946 932.128 637.174 945.385C625.467 949.287 588.578 951.455 582.873 957.16C588.103 962.391 598.026 963.113 604.462 966.974C628.183 981.207 662.412 984.687 690.166 986.602C781.297 992.886 868.547 952.31 926.996 883.233C946.59 860.076 959.475 833.977 972.792 807.343C982.589 787.748 988.301 765.166 994.381 743.883C995.925 738.482 999.762 728.553 998.961 722.948C998.874 722.337 998.27 721.65 997.653 721.639C973.45 721.21 949.24 721.639 885.78 720.985Z" fill="#4282c4" fill-rule="nonzero" opacity="1" stroke="none"/>
<path d="M725.494 98.8139C724.839 99.4687 724.839 99.4687 724.186 100.122C730.217 106.155 740.476 108.595 748.392 112.553C766.41 121.562 784.339 130.939 800.73 142.648C846.572 175.392 886.892 212.203 923.725 255.174C943.22 277.919 960.448 307.031 973.446 333.028C978.354 342.843 986.355 353.083 988.493 363.776C990.374 373.183 997.276 385.267 1001.58 393.871C1002.08 394.871 1002.06 402.346 1004.85 402.376C1049.55 402.857 1094.41 406.742 1138.96 403.03C1141.12 402.85 1140.27 399.976 1139.62 399.105C1133.42 390.839 1133.02 376.995 1126.54 368.357C1119.14 358.505 1115.24 344.956 1108.87 334.336C1091.75 305.804 1070.81 279.887 1049.99 253.867C1032.27 231.721 1009.89 212.015 987.185 194.985C911.776 138.429 831.691 110.032 725.494 98.8139Z" fill="#4282c4" fill-rule="nonzero" opacity="1" stroke="none"/>
<path d="M904.098 531.258C904.534 531.695 904.79 532.559 905.407 532.567C941.605 532.998 977.809 532.778 1014.01 532.567C1021.08 532.526 1032.08 519.573 1036.26 515.557C1044.59 507.541 1052.77 499.364 1061.11 491.351C1079.53 473.654 1098.4 455.879 1117.37 439.013C1116.72 438.577 1116.19 437.708 1115.42 437.704C1078.13 437.49 1040.83 437.928 1003.54 438.359C1000.09 438.399 993.688 447.046 990.456 450.134C981.87 458.338 973.497 466.762 964.941 474.995C945.101 494.086 924.778 513.163 904.098 531.258Z" fill="#4282c4" fill-rule="nonzero" opacity="1" stroke="none"/>
</g>
</g>
</svg>
