<?xml version="1.0" encoding="UTF-8" standalone="no"?>
<!DOCTYPE svg PUBLIC "-//W3C//DTD SVG 1.1//EN" "http://www.w3.org/Graphics/SVG/1.1/DTD/svg11.dtd">
<!-- Created with Vectornator (http://vectornator.io/) -->
<svg height="100%" stroke-miterlimit="10" style="fill-rule:nonzero;clip-rule:evenodd;stroke-linecap:round;stroke-linejoin:round;" version="1.1" viewBox="0 0 1240 1240" width="100%" xml:space="preserve" xmlns="http://www.w3.org/2000/svg" xmlns:vectornator="http://vectornator.io" xmlns:xlink="http://www.w3.org/1999/xlink">
<defs>
<filter color-interpolation-filters="sRGB" filterUnits="userSpaceOnUse" height="1084.59" id="Filter" width="1087.88" x="75.7768" y="81.8856">
<feDropShadow dx="-0" dy="0" flood-color="#000000" flood-opacity="0.707612" in="SourceGraphic" result="Shadow" stdDeviation="10"/>
</filter>
<filter color-interpolation-filters="sRGB" filterUnits="userSpaceOnUse" height="948.789" id="Filter_2" width="969.302" x="126.109" y="164.32">
<feDropShadow dx="-4.37114e-07" dy="10" flood-color="#000000" flood-opacity="0.707612" in="SourceGraphic" result="Shadow" stdDeviation="12.5"/>
</filter>
</defs>
<g id="Layer-2" vectornator:layerName="Layer 2">
<path d="M331.875 101.886L907.561 101.886C1037.95 101.886 1143.66 221.859 1143.66 369.853L1143.66 878.507C1143.66 1026.51 1037.95 1146.47 907.561 1146.47L331.875 1146.47C201.481 1146.47 95.7768 1026.51 95.7768 878.507L95.7768 369.853C95.7768 221.859 201.481 101.886 331.875 101.886Z" fill="#ffffff" fill-rule="nonzero" filter="url(#Filter)" stroke="none" vectornator:shadowAngle="1.5708" vectornator:shadowColor="#000000" vectornator:shadowOffset="0" vectornator:shadowOpacity="0.707612" vectornator:shadowRadius="20"/>
</g>
<g id="Layer-1" vectornator:layerName="Layer 1">
<g filter="url(#Filter_2)" vectornator:shadowAngle="1.5708" vectornator:shadowColor="#000000" vectornator:shadowOffset="10" vectornator:shadowOpacity="0.707612" vectornator:shadowRadius="25">
<path d="M524.669 1077.18C517.347 1069.85 502.078 1066.16 492.861 1061.55C468.62 1049.43 441.691 1030.78 421.435 1012.44C316.106 917.148 272.73 800.246 268.537 659.776C267.91 638.77 267.225 617.069 270.211 596.162C276.734 550.5 288.918 508.661 305.925 466.143C314.209 445.432 329.114 425.866 342.196 407.55C392.667 336.89 467.309 293.089 553.687 289.25C588.074 287.722 623.964 294.535 654.687 309.897C660.715 312.911 668.635 314.637 674.218 318.826C689.493 330.282 705.38 340.215 719.976 352.864C747.825 377 778.477 413.741 792.519 448.844C799.619 466.595 809.278 485.18 814.84 504.646C816.694 511.136 819.993 532.678 823.768 536.454C834.328 528.534 844.105 517.566 853.902 508.553C875.512 488.67 897.542 469.246 919.19 449.402C910.225 431.473 902.894 411.787 894.079 394.158C867.574 341.148 822.879 293.226 777.453 256.885C740.172 227.06 695.591 206.391 649.665 193.271C609.566 181.814 568.133 178.567 526.343 181.552C488.771 184.235 451.777 192.741 416.971 206.663C195.035 295.437 112.687 558.124 167.535 777.518C198.006 899.404 290.144 1004.47 406.368 1050.95C435.34 1062.53 465.489 1069.92 496.209 1075.5C501.167 1076.4 522.151 1079.7 524.669 1077.18Z" fill="#4282c4" fill-rule="nonzero" opacity="1" stroke="none"/>
<path d="M974.436 718.368C973.591 718.927 973.591 718.927 972.756 719.484C974.7 723.372 970.495 733.006 969.412 737.341C965.437 753.238 958.81 768.018 954.349 783.657C951.099 795.009 944.89 805.354 939.837 815.464C908.657 877.822 848.982 935.887 780.243 955.523C741.904 966.484 703.976 971.252 663.616 968.36C640.671 966.722 597.748 957.041 579.354 943.251C573.703 939.011 565.908 936.856 559.825 933.207C550.613 927.68 541.79 921.042 533.039 914.792C512.729 900.284 494.776 879.787 479.469 860.106C467.375 844.557 460.866 826.31 451.01 809.883C432.295 778.691 424.548 737.532 419.76 701.627C409.578 625.257 424.931 554.014 458.264 487.348C486.771 430.334 536.457 394.123 591.073 366.815C605.625 359.539 625.401 356.043 641.295 352.864C646.59 351.805 659.056 352.403 662.501 348.959C660.166 346.624 656.398 346.614 653.571 344.495C639.913 334.25 619.396 329.769 602.792 326.08C522.379 308.21 441.71 343.491 387.395 402.528C375.295 415.681 358.462 433.57 351.683 450.518C347.688 460.504 338.751 469.322 336.058 480.093C333.418 490.65 327.305 501.138 323.223 511.342C317.428 525.83 313.603 542.013 309.831 557.101C300.142 595.856 300.345 638.399 300.345 677.633C300.345 782.181 348.353 895.28 421.993 968.914C502.223 1049.15 619.6 1087.33 732.253 1076.05C758.373 1073.45 788.543 1069.17 813.166 1059.32C823.269 1055.28 833.753 1052.2 843.857 1048.16C849.11 1046.05 854.868 1042.19 860.039 1040.9C863.815 1039.96 867.087 1036.21 870.642 1035.32C884.268 1031.92 898.118 1020.73 909.704 1013C966.648 975.047 1005.26 928.701 1039.72 871.267C1049.18 855.511 1054.79 838.9 1063.16 822.16C1064.12 820.226 1070.52 805.08 1070.41 804.862C1068.92 801.88 1061.8 797.2 1059.82 795.376C1053.69 789.765 1047.6 784.15 1041.4 778.635C1018.97 758.697 996.365 738.842 974.436 718.368Z" fill="#4282c4" fill-rule="nonzero" opacity="1" stroke="none"/>
<path d="M846.647 709.998C837.587 711.509 833.894 709.629 821.537 710.556C819.577 710.703 816.615 723.873 815.956 726.181C811.526 741.684 802.942 755.368 796.983 770.265C784.289 801.997 753.763 831.544 728.905 852.851C701.15 876.642 668.523 890.092 634.6 901.399C624.614 904.728 593.15 906.577 588.284 911.443C592.745 915.905 601.209 916.52 606.698 919.814C626.931 931.954 656.126 934.922 679.799 936.555C757.529 941.915 831.949 907.306 881.802 848.387C898.515 828.635 909.505 806.374 920.864 783.657C929.22 766.944 934.092 747.682 939.278 729.529C940.595 724.922 943.868 716.453 943.185 711.673C943.111 711.151 942.595 710.566 942.069 710.556C921.425 710.19 900.775 710.556 846.647 709.998Z" fill="#4282c4" fill-rule="nonzero" opacity="1" stroke="none"/>
<path d="M709.932 179.32C709.373 179.878 709.373 179.878 708.816 180.435C713.96 185.581 722.711 187.662 729.463 191.038C744.831 198.723 760.124 206.721 774.104 216.708C813.205 244.637 847.596 276.034 879.012 312.686C895.641 332.087 910.335 356.918 921.422 379.092C925.608 387.463 932.432 396.198 934.256 405.318C935.86 413.342 941.747 423.649 945.419 430.988C945.845 431.841 945.828 438.216 948.208 438.242C986.334 438.652 1024.6 441.966 1062.6 438.8C1064.44 438.646 1063.71 436.195 1063.16 435.452C1057.87 428.401 1057.53 416.593 1052 409.225C1045.69 400.822 1042.36 389.266 1036.93 380.207C1022.33 355.871 1004.47 333.765 986.71 311.572C971.596 292.682 952.507 275.874 933.14 261.348C868.821 213.109 800.512 188.888 709.932 179.32Z" fill="#4282c4" fill-rule="nonzero" opacity="1" stroke="none"/>
<path d="M862.272 548.171C862.644 548.544 862.862 549.281 863.388 549.288C894.263 549.655 925.143 549.468 956.021 549.288C962.051 549.253 971.433 538.205 974.999 534.779C982.104 527.942 989.081 520.967 996.194 514.133C1011.91 499.038 1028 483.877 1044.18 469.491C1043.63 469.119 1043.17 468.378 1042.52 468.375C1010.71 468.192 978.897 468.566 947.09 468.933C944.148 468.968 938.687 476.343 935.93 478.977C928.607 485.974 921.465 493.16 914.167 500.182C897.245 516.466 879.911 532.737 862.272 548.171Z" fill="#4282c4" fill-rule="nonzero" opacity="1" stroke="none"/>
</g>
</g>
</svg>
